<svg height="447" viewBox="0 0 1355 447" width="1355" xmlns="http://www.w3.org/2000/svg"><g fill="none" transform="translate(.749933 .367942)"><path d="m114.600067 10.9520584c27.38-10.32999997 57.36-13.21999997 86.3-9.22999997 34.99 4.4 67.95 21.24999997 92.99 45.91999997-7.79 8.41-16.19 16.23-24.17 24.46-2.98 2.96-5.79 6.13-9.25 8.56-13.23-12.08-28.69-21.91-45.83-27.41-23.79-7.55-49.83-8.06-73.82-1.11-26.81 7.5-50.6099998 24.78-66.5099998 47.58-15.16 21.3999996-23.12 47.7199996-22.79 73.9099996-.09 26.08 8.21 52.12 23.39 73.32 14.2 20.16 34.7099998 35.78 57.8899998 44.19 22.76 8.38 47.85 9.28 71.53 4.68 23.76-4.59 45.72-17.36 61.82-35.37 13.05-15.23 20.01-35 21.95-54.76-5.6-.52-11.23-.2-16.85-.27-31.86-.06-63.73.14-95.6-.06-.13-15.63-.06-31.26-.04-46.89 25.2-.46 50.42-.05 75.64-.19 27.73.06 55.46-.11 83.19.07 2.11 7.89 2.25 16.16 2.55 24.27.61 29.24-5.03 58.99-18.81 84.94-8.93 16.9-22.05 31.2-36.7 43.31-12.25 10.17-26.22 18.25-41.09 23.92-20.06 7.84-41.71 10.77-63.15 11.163012-29.05.166988-58.13-6.863012-83.7599998-20.583012-26.08-13.92-48.87-34.14-65.08-58.92-18.41999996-27.59-28.42999996-60.65-28.4000672-93.83.09006724-32.87 10.0200672-65.62 28.2300672-92.9999996 20.6-31.23 51.24-55.74 86.3699998-68.67z" fill="#4385f5"/><path d="m863.720067 163.102058c20.85-25.82 54.12-42.12 87.55-39.68 15.76 1.09 31.28 6.66 43.73 16.47 3.46 2.65 6.290003 6.02 9.660003 8.79.85-6.18-.1-12.44.77-18.62 15.32-.12 30.65-.11 45.98-.01.54 30.85.07 61.72.23 92.58v98c.2 12.45-.16 24.95-2.14 37.27-3.37 21.79-12.14 43.31-27.76 59.21-17.56 17.97-42.650003 27.07-67.430003 28.29-25.74 2.09-52.39-5.06-72.91-20.93-13.53-10.3-24.5-23.86-32.02-39.09-.85-1.72-1.49-3.52-2.05-5.33 9.56-4.37 19.42-8.06 29.07-12.22 4.44-1.72 8.67-4.06 13.36-5.08 4.61 10.13 11.08 19.59 19.95 26.46 12.26 10.13 28.88 14.38 44.57 12.21 12.21-1.19 24.4-5.79 33.24-14.52 11.57-11.16 16.570003-27.49 17.380003-43.2.14-7.83.37-15.67-.11-23.48-1.94 1.34-3.73 2.88-5.370003 4.57-11.23 11.42-26.71 17.97-42.41 20.23-30.86 4.38-62.57-8.04-84.71-29.45-14.82-14.48-25.8-32.97-30.76-53.13-8.9-34.14-.35-72.2 22.18-99.34m78.97 4.3c-7.86.93-15.55 3.36-22.43 7.27-13.82 7.65-24.09 20.96-29.12 35.83-6.4 18.87-5.21 40.43 4.08 58.15 6.16 11.64 15.85 21.43 27.7 27.26 13.02 6.45 28.51 8.05 42.45 3.78 15.18-4.45 27.89-15.81 35.080003-29.78 8.28-16.09 10.06-35.11 6.28-52.71-2.73-12.93-9.220003-25.11-18.640003-34.4-11.88-11.51-28.94-17.4-45.4-15.4z" fill="#4385f5"/><path d="m1080.62007 12.8620584c15.8-.18 31.6-.08 47.4-.06.15 100.6099996.02 201.2199996.07 301.8299996-.06 8.13.1 16.27-.09 24.41-15.81.1-31.64.21-47.44-.04.03-108.71-.09-217.43.06-326.1399996z" fill="#34a853"/><path d="m456.610067 123.742058c21.52-2.18 43.63 1.87 62.99 11.51 15.6 7.83 29.19 19.5 39.4 33.64 19.89 27.61 25.44 64.45 16.26 97.03-5.15 18.66-15.4 35.92-29.47 49.23-25.61 24.71-63.41 35.44-98.29 29.01-18.25-3.21-35.73-10.93-50.22-22.5-13.81-10.82-24.73-25.19-31.77-41.23-17.65-40-10.39-90.57 20.12-122.42 18.31-19.75 44.19-31.99 70.98-34.27m2 44.02c-12.3 1.87-24.07 7.52-32.97 16.25-22.54 21.13-26.7 57.76-12.39 84.6 7.28 14.22 20.36 25.26 35.46 30.37 13.67 4.49 28.94 4.09 42.22-1.55 14.84-6.07 26.89-18.18 33.43-32.77 7.09-16.05 8.17-34.62 3.26-51.44-4.4-15.72-14.96-29.72-29.13-37.9-11.89-7.02-26.26-9.68-39.88-7.56z" fill="#ea4235"/><path d="m1210.04007 132.592058c20.5-9.49 44.15-11.86 66.18-6.99 20.73 4.65 39.3 17.06 52.64 33.46 11.71 13.81 19.17 30.57 25.17 47.5-40.82 17.26-81.91 33.94-122.84 50.97-8.52 3.74-17.34 6.83-25.69 10.93 6.25 12.94 16.85 24.21 30.43 29.43 21.57 8.14 47.94 4.44 65.03-11.53 5.27-4.16 8.82-9.93 13.37-14.76 6.89 3.94 13.24 8.74 19.93 13.02 5.83 4.05 11.99 7.64 17.63 11.98-10.42 15.58-24.9 28.45-41.5 37.15-35.81 18.58-81.77 15.72-114.88-7.38-14.6-9.96-26.39-23.8-34.42-39.5-10.98-21.37-14.47-46.23-11.13-69.93 2.44-19.63 10.08-38.69 22.27-54.32 9.97-12.84 23.03-23.25 37.81-30.03m13.56 44.32c-17.53 11.74-27.59 33.22-26.06 54.19 32.99-13.98 66.24-27.36 99.22-41.37-4.27-10.81-14.57-18-25.41-21.19-16.11-5.3-34.11-1.28-47.75 8.37z" fill="#ea4235"/><path d="m698.600067 123.602058c33.52-3.09 68.74 9.01 91.83 33.86 35.5 36.15 40.02 97.43 11.84 139.21-10.8 16.45-26.27 29.8-44.06 38.2-30.54 14.64-67.64 14.81-98.22.2-16.75-7.74-31.19-20.07-42.17-34.83-10.64-15.07-17.57-32.78-19.81-51.09-.46-7.18-1.72-14.38-.52-21.56 1.13-30.68 16.05-60.51 40.08-79.65 17.18-14.19 38.94-22.34 61.03-24.34m1.99 43.99c-12.19 1.71-23.85 7.09-32.89 15.47-25.62 22.92-28.6 65.4-8.8 92.92 9.36 13.58 24.56 22.93 40.85 25.33 25.83 4.5 53.19-10.6 64.36-34.08 6.7-13.73 9.28-29.61 6.61-44.7-2.25-15.5-9.79-30.36-21.77-40.57-13.08-11.38-31.18-16.87-48.36-14.37z" fill="#fabc05"/></g></svg>